HIERARCHY
ROOT Hips
{
	OFFSET 54.860600 -3.961384 84.456497
	CHANNELS 6 Xposition Yposition Zposition Xrotation Yrotation Zrotation
	JOINT spine
	{
		OFFSET 0.000000 -0.342408 5.954376
		CHANNELS 3 Xrotation Yrotation Zrotation
		JOINT spine1
		{
			OFFSET 0.000000 -0.000001 8.856018
			CHANNELS 3 Xrotation Yrotation Zrotation
			JOINT spine2
			{
				OFFSET 0.000000 -0.000001 8.485672
				CHANNELS 3 Xrotation Yrotation Zrotation
				JOINT Neck
				{
					OFFSET 0.000000 -1.038703 21.786301
					CHANNELS 3 Xrotation Yrotation Zrotation
					JOINT Head
					{
						OFFSET 0.000000 -0.000001 6.582199
						CHANNELS 3 Xrotation Yrotation Zrotation
						End Site
						{
							OFFSET 0.000000 5.254358 15.932602
						}
					}
				}
				JOINT RightShoulder
				{
					OFFSET -3.573071 0.497524 9.163864
					CHANNELS 3 Xrotation Yrotation Zrotation
					JOINT RightArm
					{
						OFFSET 0.000000 -0.000002 12.019196
						CHANNELS 3 Xrotation Yrotation Zrotation
						JOINT RightArmRoll
						{
							OFFSET 0.000000 -0.000001 6.067551
							CHANNELS 3 Xrotation Yrotation Zrotation
							JOINT RightForeArm
							{
								OFFSET 0.000000 -0.000003 17.672607
								CHANNELS 3 Xrotation Yrotation Zrotation
								JOINT RightForeArmRoll
								{
									OFFSET 0.000000 -0.000001 6.808716
									CHANNELS 3 Xrotation Yrotation Zrotation
									JOINT RightHand
									{
										OFFSET 0.000000 -0.000002 13.663605
										CHANNELS 3 Xrotation Yrotation Zrotation
										End Site
										{
											OFFSET 0.000000 0.000000 0.100006
										}
									}
								}
							}
						}
					}
				}
				JOINT LeftShoulder
				{
					OFFSET 3.573071 0.497524 9.163864
					CHANNELS 3 Xrotation Yrotation Zrotation
					JOINT LeftArm
					{
						OFFSET 0.000000 -0.000002 12.019196
						CHANNELS 3 Xrotation Yrotation Zrotation
						JOINT LeftArmRoll
						{
							OFFSET 0.000000 -0.000001 6.067551
							CHANNELS 3 Xrotation Yrotation Zrotation
							JOINT LeftForeArm
							{
								OFFSET 0.000000 -0.000003 17.672607
								CHANNELS 3 Xrotation Yrotation Zrotation
								JOINT LeftForeArmRoll
								{
									OFFSET 0.000000 -0.000001 6.808716
									CHANNELS 3 Xrotation Yrotation Zrotation
									JOINT LeftHand
									{
										OFFSET 0.000000 -0.000002 13.663605
										CHANNELS 3 Xrotation Yrotation Zrotation
										End Site
										{
											OFFSET 0.000000 0.000000 0.100006
										}
									}
								}
							}
						}
					}
				}
			}
		}
	}
	JOINT RightUpLeg
	{
		OFFSET -5.277740 0.811858 -0.967796
		CHANNELS 3 Xrotation Yrotation Zrotation
		JOINT RightUpLegRoll
		{
			OFFSET 0.000000 -0.000003 16.021400
			CHANNELS 3 Xrotation Yrotation Zrotation
			JOINT RightLeg
			{
				OFFSET 0.000000 0.000003 -19.840103
				CHANNELS 3 Xrotation Yrotation Zrotation
				JOINT RightLegRoll
				{
					OFFSET 0.000000 -0.000003 19.904999
					CHANNELS 3 Xrotation Yrotation Zrotation
					JOINT RightFoot
					{
						OFFSET 0.000000 -0.000003 16.567497
						CHANNELS 3 Xrotation Yrotation Zrotation
						JOINT RightToeBase
						{
							OFFSET 0.000000 -0.000002 13.849602
							CHANNELS 3 Xrotation Yrotation Zrotation
							End Site
							{
								OFFSET 0.005871 0.773116 6.707275
							}
						}
					}
				}
			}
		}
	}
	JOINT LeftUpLeg
	{
		OFFSET 5.277740 0.811858 -0.967796
		CHANNELS 3 Xrotation Yrotation Zrotation
		JOINT LeftUpLegRoll
		{
			OFFSET 0.000000 -0.000003 16.021500
			CHANNELS 3 Xrotation Yrotation Zrotation
			JOINT LeftLeg
			{
				OFFSET 0.000000 -0.000003 19.840004
				CHANNELS 3 Xrotation Yrotation Zrotation
				JOINT LeftLegRoll
				{
					OFFSET 0.000000 -0.000003 20.089005
					CHANNELS 3 Xrotation Yrotation Zrotation
					JOINT LeftFoot
					{
						OFFSET 0.000000 -0.000003 16.383499
						CHANNELS 3 Xrotation Yrotation Zrotation
						JOINT LeftToeBase
						{
							OFFSET 0.000000 -0.000002 13.849594
							CHANNELS 3 Xrotation Yrotation Zrotation
							End Site
							{
								OFFSET -0.026310 0.773116 6.707275
							}
						}
					}
				}
			}
		}
	}
}
MOTION
Frames: 13
Frame Time: 0.041667
55.230698 -3.074786 84.333801 -9.648432 -2.455148 1.841993 -0.101584 0.043326 0.042147 3.798634 0.074216 0.093662 5.443713 0.075367 0.093781 16.266666 7.951328 -1.445994 2.771518 -9.314172 -1.157756 1.280465 -72.530209 -0.125094 -48.500391 -114.106943 -53.488209 -0.000004 -0.000023 0.000007 -0.027720 3.644469 -1.990796 0.000006 -0.000004 -3.011609 -5.000182 -7.999906 0.000005 -11.022908 74.579191 13.711702 -48.497772 116.258754 54.042731 0.000002 0.000000 -0.000000 -0.027661 -3.639170 1.990663 0.000001 -0.000004 3.011600 -5.000171 7.999927 -0.000007 2.743173 -175.525111 5.727371 -179.999991 0.000005 -1.162999 168.730944 -2.961885 -0.647893 0.000002 -0.000002 0.187095 70.800716 6.862999 2.077297 25.456955 -7.355614 0.000011 4.130301 -179.283860 0.255363 -0.000004 -0.000005 -1.169160 -8.736486 2.566948 0.421547 -0.000002 -0.000004 -0.122738 69.945112 -6.867078 -2.155653 25.456948 7.355614 0.000000 
55.238697 -3.077673 84.330391 -9.649999 -2.457365 1.851557 -0.102810 0.043422 0.042147 3.796263 0.075333 0.093662 5.441333 0.076483 0.093780 16.275523 7.960396 -1.453255 2.768637 -9.334053 -1.163855 1.280501 -72.537599 -0.125940 -48.559831 -114.081364 -53.519525 -0.000001 -0.000023 0.000007 -0.027719 3.644469 -1.990799 0.000003 -0.000004 -3.011610 -5.000184 -7.999906 0.000006 -11.030347 74.592325 13.720369 -48.548858 116.237334 54.069908 -0.000000 0.000000 -0.000000 -0.027662 -3.639170 1.990664 0.000001 -0.000004 3.011601 -5.000174 7.999927 -0.000008 2.761105 -175.538170 5.710885 -179.999991 0.000005 -1.162999 168.758497 -2.940580 -0.644193 0.000001 -0.000002 0.187325 70.804432 6.862947 2.077158 25.456953 -7.355615 0.000011 4.140150 -179.282890 0.254427 -0.000004 -0.000005 -1.169160 -8.716757 2.568922 0.420570 -0.000002 -0.000004 -0.122111 69.933576 -6.867073 -2.155666 25.456952 7.355613 0.000001 
55.238899 -3.078233 84.332298 -9.651427 -2.459414 1.861326 -0.104035 0.043500 0.042147 3.793874 0.076446 0.093661 5.438955 0.077595 0.093780 16.284156 7.968982 -1.460723 2.765994 -9.353911 -1.170128 1.279163 -72.545618 -0.128352 -48.618062 -114.056619 -53.549817 -0.000001 -0.000023 0.000007 -0.027719 3.644469 -1.990797 0.000002 -0.000004 -3.011611 -5.000181 -7.999905 0.000006 -11.039355 74.604995 13.730731 -48.598831 116.216721 54.096584 -0.000000 -0.000000 0.000000 -0.027660 -3.639170 1.990664 0.000001 -0.000004 3.011600 -5.000172 7.999927 -0.000007 2.777929 -175.551216 5.693165 -179.999991 0.000005 -1.162999 168.783482 -2.917290 -0.640243 0.000001 -0.000002 0.187668 70.809821 6.862835 2.077007 25.456955 -7.355613 0.000012 4.149942 -179.282890 0.253556 -0.000004 -0.000004 -1.169160 -8.696609 2.570652 0.419558 -0.000002 -0.000004 -0.121460 69.921794 -6.867059 -2.155794 25.456952 7.355614 -0.000000 
55.233997 -3.080296 84.332092 -9.652761 -2.461347 1.871239 -0.105265 0.043566 0.042147 3.791495 0.077556 0.093661 5.436565 0.078705 0.093780 16.292784 7.977212 -1.468353 2.763539 -9.373758 -1.176543 1.276862 -72.554026 -0.131871 -48.676405 -114.031893 -53.580515 -0.000001 -0.000023 0.000007 -0.027722 3.644468 -1.990799 0.000003 -0.000004 -3.011610 -5.000183 -7.999906 0.000006 -11.049563 74.617385 13.742370 -48.647838 116.197022 54.122668 0.000001 0.000000 0.000000 -0.027659 -3.639170 1.990664 0.000003 -0.000004 3.011601 -5.000172 7.999927 -0.000007 2.793955 -175.565259 5.674539 -179.999991 0.000005 -1.162998 168.806746 -2.893976 -0.637411 0.000002 -0.000002 0.188089 70.816180 6.862760 2.076703 25.456955 -7.355613 0.000010 4.159694 -179.282890 0.252779 -0.000004 -0.000004 -1.169160 -8.676160 2.572215 0.418524 -0.000002 -0.000004 -0.120793 69.909930 -6.867070 -2.155629 25.456950 7.355613 -0.000000 
55.239494 -3.076714 84.321503 -9.654035 -2.463211 1.881246 -0.106499 0.043624 0.042147 3.789095 0.078664 0.093661 5.434174 0.079813 0.093779 16.301298 7.985254 -1.476064 2.761174 -9.393594 -1.183015 1.274002 -72.562652 -0.136021 -48.734899 -114.007195 -53.611490 -0.000003 -0.000023 0.000006 -0.027717 3.644469 -1.990797 0.000002 -0.000004 -3.011610 -5.000184 -7.999906 0.000006 -11.060498 74.629645 13.754795 -48.697073 116.177406 54.149286 0.000001 -0.000000 -0.000000 -0.027662 -3.639170 1.990664 0.000002 -0.000003 3.011601 -5.000171 7.999927 -0.000008 2.809536 -175.580285 5.655359 -179.999991 0.000005 -1.162999 168.829108 -2.869672 -0.633440 0.000002 -0.000002 0.188556 70.823277 6.862619 2.076441 25.456952 -7.355614 0.000011 4.169415 -179.282903 0.252057 -0.000005 -0.000004 -1.169160 -8.655527 2.573691 0.417476 -0.000002 -0.000004 -0.120117 69.897950 -6.867044 -2.155767 25.456952 7.355613 -0.000000 
55.237400 -3.078535 84.326195 -9.655295 -2.465065 1.891254 -0.107735 0.043680 0.042147 3.786705 0.079773 0.093661 5.431783 0.080921 0.093780 16.309814 7.993235 -1.483799 2.758831 -9.413431 -1.189515 1.271007 -72.571368 -0.140332 -48.793505 -113.982525 -53.642622 -0.000005 -0.000023 0.000007 -0.027719 3.644469 -1.990798 0.000004 -0.000004 -3.011610 -5.000182 -7.999906 0.000006 -11.071602 74.641899 13.767387 -48.746227 116.157735 54.175940 -0.000000 -0.000000 -0.000000 -0.027661 -3.639170 1.990664 0.000001 -0.000004 3.011601 -5.000172 7.999927 -0.000007 2.825006 -175.594342 5.636096 -179.999991 0.000005 -1.162001 168.851087 -2.844382 -0.630325 0.000001 -0.000002 0.189033 70.830476 6.862512 2.076179 25.456955 -7.355613 0.000011 4.179141 -179.282917 0.251348 -0.000004 -0.000004 -1.169160 -8.634854 2.575127 0.416421 -0.000002 -0.000004 -0.119439 69.885976 -6.867044 -2.155707 25.456957 7.355614 -0.000000 
55.239098 -3.080014 84.334801 -9.656590 -2.466948 1.901238 -0.108968 0.043740 0.042146 3.784314 0.080882 0.093661 5.429394 0.082029 0.093779 16.318432 8.001308 -1.491505 2.756435 -9.433279 -1.195986 1.268285 -72.579981 -0.144332 -48.852225 -113.957895 -53.673795 -0.000004 -0.000023 0.000007 -0.027721 3.644469 -1.990796 0.000002 -0.000004 -3.011609 -5.000183 -7.999906 0.000004 -11.082346 74.654166 13.779610 -48.795633 116.138173 54.202640 -0.000002 -0.000000 0.000000 -0.027662 -3.639170 1.990664 0.000002 -0.000004 3.011601 -5.000174 7.999927 -0.000007 2.840699 -175.608385 5.617078 -179.999991 0.000005 -1.162001 168.873654 -2.820070 -0.626380 0.000002 -0.000002 0.189489 70.837456 6.862368 2.075925 25.456953 -7.355615 0.000011 4.188872 -179.282931 0.250613 -0.000005 -0.000004 -1.169160 -8.614276 2.576622 0.415375 -0.000002 -0.000004 -0.118765 69.874003 -6.867044 -2.155748 25.456950 7.355615 -0.000000 
55.235294 -3.076605 84.328300 -9.657943 -2.468910 1.911114 -0.110198 0.043809 0.042147 3.781925 0.081993 0.093662 5.427005 0.083140 0.093779 16.327062 8.009641 -1.499102 2.753927 -9.453127 -1.202366 1.266253 -72.588307 -0.147547 -48.910920 -113.933204 -53.704753 -0.000004 -0.000023 0.000006 -0.027718 3.644470 -1.990798 0.000004 -0.000003 -3.011610 -5.000182 -7.999905 0.000005 -11.092325 74.666679 13.791008 -48.844629 116.118407 54.228574 -0.000002 0.000000 0.000000 -0.027663 -3.639170 1.990664 0.000004 -0.000004 3.011601 -5.000171 7.999927 -0.000007 2.856954 -175.622441 5.598657 -179.999991 0.000005 -1.162001 168.897410 -2.796746 -0.622590 0.000002 -0.000002 0.189887 70.843596 6.862255 2.075627 25.456955 -7.355613 0.000011 4.198635 -179.282931 0.249809 -0.000004 -0.000004 -1.169160 -8.593905 2.578234 0.414342 -0.000002 -0.000004 -0.118103 69.862139 -6.867038 -2.155780 25.456953 7.355613 0.000000 
55.235802 -3.077811 84.331993 -9.659418 -2.471019 1.920820 -0.111423 0.043893 0.042147 3.779545 0.083107 0.093662 5.424624 0.084254 0.093779 16.335711 8.018356 -1.506514 2.751217 -9.472987 -1.208602 1.265313 -72.596120 -0.149499 -48.969735 -113.908540 -53.735526 -0.000004 -0.000023 0.000006 -0.027720 3.644469 -1.990797 0.000004 -0.000003 -3.011609 -5.000184 -7.999906 0.000005 -11.100971 74.679458 13.800962 -48.896614 116.097261 54.257192 0.000000 -0.000000 0.000000 -0.027662 -3.639170 1.990664 0.000003 -0.000004 3.011599 -5.000170 7.999927 -0.000007 2.874109 -175.636484 5.581206 -179.999991 0.000006 -1.162001 168.923146 -2.774414 -0.619925 0.000001 -0.000002 0.190196 70.848357 6.862170 2.075617 25.456957 -7.355613 0.000011 4.208446 -179.282944 0.248897 -0.000004 -0.000004 -1.169160 -8.573885 2.580031 0.413333 -0.000002 -0.000004 -0.117459 69.850480 -6.867037 -2.155701 25.456952 7.355613 -0.000000 
55.256195 -3.086974 84.369293 -9.661035 -2.473304 1.930299 -0.112644 0.043997 0.042147 3.777175 0.084225 0.093662 5.422255 0.085371 0.093780 16.344581 8.027617 -1.513710 2.748231 -9.492859 -1.214642 1.265897 -72.603306 -0.149715 -49.030209 -113.883186 -53.767700 -0.000003 -0.000023 0.000007 -0.027718 3.644469 -1.990797 0.000005 -0.000004 -3.011609 -5.000183 -7.999906 0.000005 -11.107828 74.692736 13.809002 -48.948209 116.075950 54.284551 0.000000 0.000000 -0.000000 -0.027663 -3.639170 1.990665 0.000001 -0.000004 3.011600 -5.000171 7.999926 -0.000007 2.892497 -175.648532 5.565191 -179.999991 0.000005 -1.162002 168.951573 -2.754074 -0.616538 0.000001 -0.000002 0.190381 70.851533 6.862114 2.075412 25.456952 -7.355614 0.000011 4.218315 -179.282958 0.247835 -0.000004 -0.000004 -1.169160 -8.554340 2.582101 0.412361 -0.000002 -0.000004 -0.116840 69.839046 -6.867041 -2.155709 25.456952 7.355613 -0.000001 
55.255203 -3.085381 84.362701 -9.662856 -2.475824 1.939490 -0.113856 0.044127 0.042147 3.774825 0.085348 0.093662 5.419896 0.086494 0.093779 16.353684 8.037563 -1.520615 2.744915 -9.512762 -1.220440 1.268410 -72.609596 -0.147727 -49.092196 -113.857047 -53.801038 -0.000002 -0.000023 0.000007 -0.027719 3.644469 -1.990797 0.000004 -0.000004 -3.011609 -5.000183 -7.999906 0.000006 -11.112369 74.706533 13.814552 -49.000802 116.053698 54.311964 0.000000 -0.000000 -0.000000 -0.027664 -3.639170 1.990664 0.000001 -0.000004 3.011601 -5.000172 7.999927 -0.000008 2.912459 -175.660581 5.550879 -179.999991 0.000005 -1.162002 168.983593 -2.735720 -0.612370 0.000001 -0.000002 0.190409 70.852387 6.862115 2.075361 25.456955 -7.355613 0.000010 4.228267 -179.282958 0.246583 -0.000004 -0.000004 -1.169160 -8.535397 2.584495 0.411429 -0.000002 -0.000004 -0.116255 69.827927 -6.867050 -2.155701 25.456952 7.355613 0.000000 
55.248695 -3.077314 84.367310 -9.664911 -2.478628 1.948332 -0.115053 0.044289 0.042146 3.772475 0.086477 0.093662 5.417555 0.087623 0.093780 16.362929 8.048344 -1.527150 2.741172 -9.532691 -1.225928 1.273281 -72.615061 -0.143040 -49.154146 -113.830874 -53.833700 -0.000004 -0.000023 0.000006 -0.027721 3.644469 -1.990797 0.000004 -0.000003 -3.011609 -5.000184 -7.999906 0.000005 -11.114183 74.721081 13.817164 -49.054248 116.030461 54.339073 -0.000002 -0.000000 0.000000 -0.027662 -3.639170 1.990664 0.000002 -0.000004 3.011600 -5.000170 7.999927 -0.000008 2.934325 -175.670662 5.538744 -179.999991 0.000005 -1.162001 169.019670 -2.719372 -0.609408 0.000002 -0.000002 0.190246 70.850495 6.862174 2.075489 25.456953 -7.355613 0.000010 4.238310 -179.281961 0.245175 -0.000004 -0.000005 -1.169160 -8.517197 2.587297 0.410551 -0.000002 -0.000004 -0.115708 69.817128 -6.867068 -2.155671 25.456953 7.355613 0.000000 
55.250595 -3.081905 84.373207 -9.667244 -2.481767 1.956764 -0.116241 0.044487 0.042147 3.770156 0.087614 0.093663 5.415237 0.088760 0.093781 16.372414 8.060114 -1.533261 2.736938 -9.552650 -1.231070 1.280912 -72.619206 -0.135211 -49.217616 -113.803929 -53.867294 -0.000005 -0.000023 0.000006 -0.027719 3.644469 -1.990797 0.000004 -0.000004 -3.011610 -5.000180 -7.999906 0.000006 -11.112648 74.736408 13.816183 -49.109948 116.005504 54.367216 -0.000000 -0.000000 -0.000000 -0.027662 -3.639170 1.990664 0.000002 -0.000004 3.011601 -5.000174 7.999927 -0.000007 2.958442 -175.678749 5.529140 -179.999991 0.000005 -1.162002 169.060747 -2.706979 -0.605993 0.000002 -0.000003 0.189859 70.845516 6.862259 2.075810 25.456955 -7.355615 0.000010 4.248473 -179.281975 0.243420 -0.000004 -0.000004 -1.169160 -8.499861 2.590580 0.409735 -0.000002 -0.000004 -0.115208 69.806849 -6.867064 -2.155707 25.456952 7.355614 -0.000000 
